<mxfile host="65bd71144e">
    <diagram id="bpbkTxAe3MsM5qXTKhsR" name="Page-1">
        <mxGraphModel dx="2455" dy="507" grid="1" gridSize="10" guides="1" tooltips="1" connect="1" arrows="1" fold="1" page="1" pageScale="1" pageWidth="1100" pageHeight="850" math="0" shadow="0">
            <root>
                <mxCell id="0"/>
                <mxCell id="1" parent="0"/>
                <mxCell id="154" value="Command Design Pattern" style="text;html=1;align=center;verticalAlign=middle;resizable=0;points=[];autosize=1;strokeColor=#C73500;fillColor=#fa6800;fontColor=#000000;fontSize=25;movable=0;rotatable=0;deletable=0;editable=0;connectable=0;" parent="1" vertex="1">
                    <mxGeometry x="-1030" y="55" width="310" height="40" as="geometry"/>
                </mxCell>
                <mxCell id="201" value="&lt;span style=&quot;font-size: 14px;&quot;&gt;The Command Design Pattern is a behavioral design pattern used to turn a request into a stand-alone object that contains all the information about the request. It allows you to parameterize clients with queues, requests, and operations, and it decouples the sender and the receiver of the request. This pattern is particularly useful when you need to manage a series of requests and operations in a clean and flexible way.&lt;/span&gt;" style="shape=note2;boundedLbl=1;whiteSpace=wrap;html=1;size=25;verticalAlign=top;align=left;movable=1;resizable=1;rotatable=1;deletable=1;editable=1;connectable=1;" parent="1" vertex="1">
                    <mxGeometry x="-665" y="15" width="590" height="120" as="geometry"/>
                </mxCell>
                <mxCell id="326" value="&lt;&lt;interface&gt;&gt;&#10;Command" style="swimlane;fontStyle=1;align=center;verticalAlign=top;childLayout=stackLayout;horizontal=1;startSize=40;horizontalStack=0;resizeParent=1;resizeParentMax=0;resizeLast=0;collapsible=1;marginBottom=0;movable=0;resizable=0;rotatable=0;deletable=0;editable=0;connectable=0;" parent="1" vertex="1">
                    <mxGeometry x="-450" y="165" width="160" height="74" as="geometry"/>
                </mxCell>
                <mxCell id="328" value="" style="line;strokeWidth=1;fillColor=none;align=left;verticalAlign=middle;spacingTop=-1;spacingLeft=3;spacingRight=3;rotatable=0;labelPosition=right;points=[];portConstraint=eastwest;strokeColor=inherit;movable=0;resizable=0;deletable=0;editable=0;connectable=0;" parent="326" vertex="1">
                    <mxGeometry y="40" width="160" height="8" as="geometry"/>
                </mxCell>
                <mxCell id="329" value="+Execute():void" style="text;strokeColor=none;fillColor=none;align=left;verticalAlign=top;spacingLeft=4;spacingRight=4;overflow=hidden;rotatable=0;points=[[0,0.5],[1,0.5]];portConstraint=eastwest;movable=0;resizable=0;deletable=0;editable=0;connectable=0;" parent="326" vertex="1">
                    <mxGeometry y="48" width="160" height="26" as="geometry"/>
                </mxCell>
                <mxCell id="330" value="Invoker" style="swimlane;fontStyle=1;align=center;verticalAlign=top;childLayout=stackLayout;horizontal=1;startSize=26;horizontalStack=0;resizeParent=1;resizeParentMax=0;resizeLast=0;collapsible=1;marginBottom=0;movable=0;resizable=0;rotatable=0;deletable=0;editable=0;connectable=0;" parent="1" vertex="1">
                    <mxGeometry x="-790" y="165" width="210" height="100" as="geometry"/>
                </mxCell>
                <mxCell id="331" value="-command:Command" style="text;strokeColor=none;fillColor=none;align=left;verticalAlign=top;spacingLeft=4;spacingRight=4;overflow=hidden;rotatable=0;points=[[0,0.5],[1,0.5]];portConstraint=eastwest;movable=0;resizable=0;deletable=0;editable=0;connectable=0;" parent="330" vertex="1">
                    <mxGeometry y="26" width="210" height="26" as="geometry"/>
                </mxCell>
                <mxCell id="332" value="" style="line;strokeWidth=1;fillColor=none;align=left;verticalAlign=middle;spacingTop=-1;spacingLeft=3;spacingRight=3;rotatable=0;labelPosition=right;points=[];portConstraint=eastwest;strokeColor=inherit;movable=0;resizable=0;deletable=0;editable=0;connectable=0;" parent="330" vertex="1">
                    <mxGeometry y="52" width="210" height="8" as="geometry"/>
                </mxCell>
                <mxCell id="333" value="+SetCommand(command:Command)&#10;+ExecuteCommand()" style="text;strokeColor=none;fillColor=none;align=left;verticalAlign=top;spacingLeft=4;spacingRight=4;overflow=hidden;rotatable=0;points=[[0,0.5],[1,0.5]];portConstraint=eastwest;movable=0;resizable=0;deletable=0;editable=0;connectable=0;" parent="330" vertex="1">
                    <mxGeometry y="60" width="210" height="40" as="geometry"/>
                </mxCell>
                <mxCell id="334" value="ConcreteCommand1" style="swimlane;fontStyle=1;align=center;verticalAlign=top;childLayout=stackLayout;horizontal=1;startSize=26;horizontalStack=0;resizeParent=1;resizeParentMax=0;resizeLast=0;collapsible=1;marginBottom=0;movable=0;resizable=0;rotatable=0;deletable=0;editable=0;connectable=0;" parent="1" vertex="1">
                    <mxGeometry x="-510" y="365" width="160" height="86" as="geometry"/>
                </mxCell>
                <mxCell id="335" value="-reciever: Reciever" style="text;strokeColor=none;fillColor=none;align=left;verticalAlign=top;spacingLeft=4;spacingRight=4;overflow=hidden;rotatable=0;points=[[0,0.5],[1,0.5]];portConstraint=eastwest;movable=0;resizable=0;deletable=0;editable=0;connectable=0;" parent="334" vertex="1">
                    <mxGeometry y="26" width="160" height="26" as="geometry"/>
                </mxCell>
                <mxCell id="336" value="" style="line;strokeWidth=1;fillColor=none;align=left;verticalAlign=middle;spacingTop=-1;spacingLeft=3;spacingRight=3;rotatable=0;labelPosition=right;points=[];portConstraint=eastwest;strokeColor=inherit;movable=0;resizable=0;deletable=0;editable=0;connectable=0;" parent="334" vertex="1">
                    <mxGeometry y="52" width="160" height="8" as="geometry"/>
                </mxCell>
                <mxCell id="337" value="+Execute():void" style="text;strokeColor=none;fillColor=none;align=left;verticalAlign=top;spacingLeft=4;spacingRight=4;overflow=hidden;rotatable=0;points=[[0,0.5],[1,0.5]];portConstraint=eastwest;movable=0;resizable=0;deletable=0;editable=0;connectable=0;" parent="334" vertex="1">
                    <mxGeometry y="60" width="160" height="26" as="geometry"/>
                </mxCell>
                <mxCell id="338" value="" style="endArrow=block;dashed=1;endFill=0;endSize=12;html=1;exitX=0.5;exitY=0;exitDx=0;exitDy=0;entryX=0.13;entryY=1.012;entryDx=0;entryDy=0;entryPerimeter=0;movable=0;resizable=0;rotatable=0;deletable=0;editable=0;connectable=0;" parent="1" source="334" target="329" edge="1">
                    <mxGeometry width="160" relative="1" as="geometry">
                        <mxPoint x="-430" y="355" as="sourcePoint"/>
                        <mxPoint x="-430" y="265" as="targetPoint"/>
                    </mxGeometry>
                </mxCell>
                <mxCell id="339" value="implement" style="edgeLabel;html=1;align=center;verticalAlign=middle;resizable=0;points=[];movable=0;rotatable=0;deletable=0;editable=0;connectable=0;" parent="338" vertex="1" connectable="0">
                    <mxGeometry x="0.3423" y="-1" relative="1" as="geometry">
                        <mxPoint as="offset"/>
                    </mxGeometry>
                </mxCell>
                <mxCell id="340" value="Reciever" style="swimlane;fontStyle=1;align=center;verticalAlign=top;childLayout=stackLayout;horizontal=1;startSize=26;horizontalStack=0;resizeParent=1;resizeParentMax=0;resizeLast=0;collapsible=1;marginBottom=0;movable=0;resizable=0;rotatable=0;deletable=0;editable=0;connectable=0;" parent="1" vertex="1">
                    <mxGeometry x="-790" y="365" width="160" height="60" as="geometry"/>
                </mxCell>
                <mxCell id="342" value="" style="line;strokeWidth=1;fillColor=none;align=left;verticalAlign=middle;spacingTop=-1;spacingLeft=3;spacingRight=3;rotatable=0;labelPosition=right;points=[];portConstraint=eastwest;strokeColor=inherit;movable=0;resizable=0;deletable=0;editable=0;connectable=0;" parent="340" vertex="1">
                    <mxGeometry y="26" width="160" height="8" as="geometry"/>
                </mxCell>
                <mxCell id="343" value="+Action():void" style="text;strokeColor=none;fillColor=none;align=left;verticalAlign=top;spacingLeft=4;spacingRight=4;overflow=hidden;rotatable=0;points=[[0,0.5],[1,0.5]];portConstraint=eastwest;movable=0;resizable=0;deletable=0;editable=0;connectable=0;" parent="340" vertex="1">
                    <mxGeometry y="34" width="160" height="26" as="geometry"/>
                </mxCell>
                <mxCell id="344" value="" style="endArrow=diamondThin;endFill=0;endSize=24;html=1;entryX=0;entryY=0.5;entryDx=0;entryDy=0;movable=0;resizable=0;rotatable=0;deletable=0;editable=0;connectable=0;" parent="1" target="335" edge="1">
                    <mxGeometry width="160" relative="1" as="geometry">
                        <mxPoint x="-630" y="404" as="sourcePoint"/>
                        <mxPoint x="-540" y="404" as="targetPoint"/>
                    </mxGeometry>
                </mxCell>
                <mxCell id="345" value="ConcreteCommand2" style="swimlane;fontStyle=1;align=center;verticalAlign=top;childLayout=stackLayout;horizontal=1;startSize=26;horizontalStack=0;resizeParent=1;resizeParentMax=0;resizeLast=0;collapsible=1;marginBottom=0;movable=0;resizable=0;rotatable=0;deletable=0;editable=0;connectable=0;" parent="1" vertex="1">
                    <mxGeometry x="-390" y="465" width="160" height="86" as="geometry"/>
                </mxCell>
                <mxCell id="346" value="-reciever: Reciever" style="text;strokeColor=none;fillColor=none;align=left;verticalAlign=top;spacingLeft=4;spacingRight=4;overflow=hidden;rotatable=0;points=[[0,0.5],[1,0.5]];portConstraint=eastwest;movable=0;resizable=0;deletable=0;editable=0;connectable=0;" parent="345" vertex="1">
                    <mxGeometry y="26" width="160" height="26" as="geometry"/>
                </mxCell>
                <mxCell id="347" value="" style="line;strokeWidth=1;fillColor=none;align=left;verticalAlign=middle;spacingTop=-1;spacingLeft=3;spacingRight=3;rotatable=0;labelPosition=right;points=[];portConstraint=eastwest;strokeColor=inherit;movable=0;resizable=0;deletable=0;editable=0;connectable=0;" parent="345" vertex="1">
                    <mxGeometry y="52" width="160" height="8" as="geometry"/>
                </mxCell>
                <mxCell id="348" value="+Execute():void" style="text;strokeColor=none;fillColor=none;align=left;verticalAlign=top;spacingLeft=4;spacingRight=4;overflow=hidden;rotatable=0;points=[[0,0.5],[1,0.5]];portConstraint=eastwest;movable=0;resizable=0;deletable=0;editable=0;connectable=0;" parent="345" vertex="1">
                    <mxGeometry y="60" width="160" height="26" as="geometry"/>
                </mxCell>
                <mxCell id="349" value="" style="endArrow=block;dashed=1;endFill=0;endSize=12;html=1;exitX=0.5;exitY=0;exitDx=0;exitDy=0;entryX=0.881;entryY=1.119;entryDx=0;entryDy=0;entryPerimeter=0;movable=0;resizable=0;rotatable=0;deletable=0;editable=0;connectable=0;" parent="1" source="345" target="329" edge="1">
                    <mxGeometry width="160" relative="1" as="geometry">
                        <mxPoint x="-310.5" y="366.69" as="sourcePoint"/>
                        <mxPoint x="-310" y="325" as="targetPoint"/>
                    </mxGeometry>
                </mxCell>
                <mxCell id="350" value="implement" style="edgeLabel;html=1;align=center;verticalAlign=middle;resizable=0;points=[];movable=0;rotatable=0;deletable=0;editable=0;connectable=0;" parent="349" vertex="1" connectable="0">
                    <mxGeometry x="0.3423" y="-1" relative="1" as="geometry">
                        <mxPoint as="offset"/>
                    </mxGeometry>
                </mxCell>
                <mxCell id="351" value="" style="endArrow=diamondThin;endFill=0;endSize=24;html=1;entryX=0;entryY=0.5;entryDx=0;entryDy=0;exitX=1;exitY=0.5;exitDx=0;exitDy=0;movable=0;resizable=0;rotatable=0;deletable=0;editable=0;connectable=0;" parent="1" source="343" edge="1">
                    <mxGeometry width="160" relative="1" as="geometry">
                        <mxPoint x="-710" y="515" as="sourcePoint"/>
                        <mxPoint x="-390" y="515" as="targetPoint"/>
                        <Array as="points">
                            <mxPoint x="-590" y="438"/>
                            <mxPoint x="-590" y="515"/>
                        </Array>
                    </mxGeometry>
                </mxCell>
                <mxCell id="352" value="" style="endArrow=diamondThin;endFill=0;endSize=24;html=1;exitX=0;exitY=0.5;exitDx=0;exitDy=0;entryX=1;entryY=0.5;entryDx=0;entryDy=0;movable=0;resizable=0;rotatable=0;deletable=0;editable=0;connectable=0;" parent="1" source="326" target="331" edge="1">
                    <mxGeometry width="160" relative="1" as="geometry">
                        <mxPoint x="-580" y="211.5" as="sourcePoint"/>
                        <mxPoint x="-520" y="175" as="targetPoint"/>
                    </mxGeometry>
                </mxCell>
                <mxCell id="353" value="Client" style="html=1;movable=0;resizable=0;rotatable=0;deletable=0;editable=0;connectable=0;" parent="1" vertex="1">
                    <mxGeometry x="-1040" y="179" width="110" height="50" as="geometry"/>
                </mxCell>
                <mxCell id="354" value="Use" style="endArrow=open;endSize=12;dashed=1;html=1;entryX=-0.003;entryY=0.234;entryDx=0;entryDy=0;entryPerimeter=0;movable=0;resizable=0;rotatable=0;deletable=0;editable=0;connectable=0;" parent="1" target="331" edge="1">
                    <mxGeometry width="160" relative="1" as="geometry">
                        <mxPoint x="-930" y="195" as="sourcePoint"/>
                        <mxPoint x="-820" y="195" as="targetPoint"/>
                    </mxGeometry>
                </mxCell>
                <mxCell id="355" value="Use" style="endArrow=open;endSize=12;dashed=1;html=1;entryX=0;entryY=0.25;entryDx=0;entryDy=0;exitX=0.596;exitY=0.986;exitDx=0;exitDy=0;exitPerimeter=0;movable=0;resizable=0;rotatable=0;deletable=0;editable=0;connectable=0;" parent="1" source="353" target="340" edge="1">
                    <mxGeometry width="160" relative="1" as="geometry">
                        <mxPoint x="-970" y="285" as="sourcePoint"/>
                        <mxPoint x="-810" y="285" as="targetPoint"/>
                    </mxGeometry>
                </mxCell>
                <mxCell id="356" value="Use" style="endArrow=open;endSize=12;dashed=1;html=1;exitX=0.75;exitY=1;exitDx=0;exitDy=0;entryX=0;entryY=0.25;entryDx=0;entryDy=0;movable=0;resizable=0;rotatable=0;deletable=0;editable=0;connectable=0;" parent="1" source="353" target="334" edge="1">
                    <mxGeometry width="160" relative="1" as="geometry">
                        <mxPoint x="-830" y="305" as="sourcePoint"/>
                        <mxPoint x="-670" y="305" as="targetPoint"/>
                    </mxGeometry>
                </mxCell>
                <mxCell id="358" value="&lt;div style=&quot;text-align: left;&quot;&gt;&lt;br&gt;&lt;/div&gt;" style="text;html=1;align=center;verticalAlign=middle;resizable=0;points=[];autosize=1;strokeColor=none;fillColor=none;movable=0;rotatable=0;deletable=0;editable=0;connectable=0;" parent="1" vertex="1">
                    <mxGeometry x="-865" y="491" width="20" height="30" as="geometry"/>
                </mxCell>
                <mxCell id="365" value="&lt;span style=&quot;&quot;&gt;Encapsulate a request as an object, thereby letting you parameterize clients with different requests,&lt;br&gt;&amp;nbsp;queue or log requests, and support undoable operations.&lt;/span&gt;" style="text;html=1;align=left;verticalAlign=middle;resizable=0;points=[];autosize=1;strokeColor=none;fillColor=none;fontSize=14;movable=0;rotatable=0;deletable=0;editable=0;connectable=0;" parent="1" vertex="1">
                    <mxGeometry x="-650" y="610" width="640" height="50" as="geometry"/>
                </mxCell>
                <mxCell id="366" value="&lt;div style=&quot;text-align: left;&quot;&gt;&lt;span style=&quot;background-color: initial;&quot;&gt;Undo and Redo&lt;/span&gt;&lt;/div&gt;&lt;div style=&quot;text-align: left;&quot;&gt;&lt;span style=&quot;background-color: initial;&quot;&gt;Transactional Process&lt;/span&gt;&lt;/div&gt;&lt;div style=&quot;text-align: left;&quot;&gt;&lt;span style=&quot;background-color: initial;&quot;&gt;Macro Command&lt;/span&gt;&lt;/div&gt;&lt;div style=&quot;text-align: left;&quot;&gt;&lt;span style=&quot;background-color: initial;&quot;&gt;GUI System&lt;/span&gt;&lt;/div&gt;&lt;div style=&quot;text-align: left;&quot;&gt;&lt;span style=&quot;background-color: initial;&quot;&gt;Log System&lt;/span&gt;&lt;/div&gt;" style="text;html=1;align=center;verticalAlign=middle;resizable=0;points=[];autosize=1;strokeColor=none;fillColor=none;" parent="1" vertex="1">
                    <mxGeometry x="-230" y="170" width="140" height="90" as="geometry"/>
                </mxCell>
            </root>
        </mxGraphModel>
    </diagram>
</mxfile>